<svg width="141" height="58" viewBox="0 0 141 58" fill="none" xmlns="http://www.w3.org/2000/svg">
<rect width="140.12" height="57.9445" rx="9.48182" fill="#CD2D26"/>
<path d="M53.6921 52.544C53.1123 53.2145 52.3149 53.7943 50.8654 53.7943H47.2236V40.8937H50.8654C52.3149 40.8937 53.1123 41.4735 53.6921 42.1438C54.7248 43.3396 54.6524 45.6588 54.6524 47.3439C54.6524 49.029 54.7248 51.3481 53.6921 52.544ZM51.7715 43.7745C51.6084 43.4484 51.2822 43.2128 50.8111 43.2128H49.7966V51.475H50.8111C51.2822 51.475 51.6084 51.2395 51.7715 50.9134C52.0792 50.3154 52.0792 48.7572 52.0792 47.3258C52.0792 45.8944 52.0795 44.3724 51.7715 43.7745Z" fill="white"/>
<path d="M56.2656 53.7943V40.8937H58.8384V53.7943H56.2656Z" fill="white"/>
<path d="M60.8311 53.7943V40.8937H66.774V43.2128H63.404V46.1299H66.3025V48.4492H63.404V51.4745H66.774V53.7938L60.8311 53.7943Z" fill="white"/>
<path d="M71.9925 49.1377H70.9235V53.7943H68.3506V40.8937H71.9925C74.7829 40.8937 75.6163 42.4704 75.6163 44.9885C75.6163 47.525 74.7829 49.1377 71.9925 49.1377ZM72.0107 43.2128H70.9235V46.8185H72.0107C72.9891 46.8185 73.0434 45.8219 73.0434 45.0066C73.0434 44.1913 72.9891 43.2128 72.0107 43.2128Z" fill="white"/>
<path d="M80.8158 49.1377H79.7468V53.7943H77.1738V40.8937H80.8158C83.606 40.8937 84.4395 42.4704 84.4395 44.9885C84.4395 47.525 83.606 49.1377 80.8158 49.1377ZM80.8338 43.2128H79.7468V46.8185H80.8338C81.8122 46.8185 81.8667 45.8219 81.8667 45.0066C81.8667 44.1913 81.8122 43.2128 80.8338 43.2128Z" fill="white"/>
<path d="M85.998 53.7943V40.8937H91.9409V43.2128H88.571V46.1299H91.47V48.4492H88.571V51.4745H91.9409V53.7938L85.998 53.7943Z" fill="white"/>
<path d="M32.4025 33.7C30.8233 35.1914 28.9374 35.937 26.3496 35.937C22.8406 35.937 20.9984 34.5335 19.551 32.8229C17.0513 29.8403 17.2263 24.2259 17.2263 20.0149C17.2263 15.8039 17.0513 10.1019 19.551 7.11967C20.9984 5.4092 22.8406 4.00537 26.3496 4.00537C28.9374 4.00537 30.8235 4.75106 32.4025 6.24245C34.0254 7.77755 35.0343 10.2338 35.1658 13.2161H28.9374C28.8937 12.3393 28.8065 11.462 28.4549 10.8042C28.1041 10.0585 27.4898 9.61967 26.3496 9.61967C25.2093 9.61967 24.6391 10.1463 24.288 10.8479C23.5424 12.2953 23.4547 16.1991 23.4547 19.9713C23.4547 23.7435 23.5424 27.6469 24.288 29.0947C24.6391 29.7962 25.209 30.3225 26.3496 30.3225C27.4901 30.3225 28.148 29.8403 28.499 29.0947C28.8497 28.4365 28.9374 27.5594 28.9812 26.6823H35.2097C35.0782 29.6647 34.0254 32.165 32.4025 33.7Z" fill="white"/>
<path d="M71.2203 33.6123C69.8167 34.972 67.4481 35.9368 64.4217 35.9368C61.3514 35.9368 59.0706 35.0597 57.6668 33.6559C56.1318 32.1209 55.6055 29.9277 55.6055 26.7257H61.8338C61.8338 27.998 61.9216 28.9191 62.4917 29.577C62.8427 29.9717 63.4567 30.3224 64.4217 30.3224C65.3868 30.3224 66.0007 30.0592 66.3959 29.533C66.8346 29.0066 67.0099 28.1731 67.0099 26.9013C67.0099 23.9186 66.5274 23.3923 64.2906 22.4713L60.3423 20.8482C57.1844 19.5325 55.8684 17.8658 55.8684 12.997C55.8684 10.1022 56.7895 7.68984 58.6758 6.06693C60.1672 4.79488 62.0531 4.09277 64.4217 4.09277C67.1849 4.09277 69.2033 4.79462 70.5621 6.06693C72.2727 7.64587 72.9746 10.1461 72.9746 13.3043H66.7464C66.7464 12.2076 66.7464 11.1987 66.2199 10.4969C65.8692 10.0145 65.3428 9.70733 64.4217 9.70733C63.5443 9.70733 62.9743 10.0583 62.6232 10.5406C62.2285 11.0669 62.097 11.7246 62.097 12.7777C62.097 14.7518 62.4478 15.3216 64.2462 16.0672L68.1499 17.6461C72.0974 19.269 73.238 21.0236 73.238 26.6819C73.238 29.8403 72.8433 32.0335 71.2203 33.6123Z" fill="white"/>
<path d="M74.9482 35.5865V4.35638H81.1767V35.5865H74.9482Z" fill="white"/>
<path d="M96.6611 35.5865L90.038 20.3221V35.5865H83.8096V4.35638H89.2485L95.74 19.6202V4.35638H101.968V35.5865H96.6611Z" fill="white"/>
<path d="M119.688 32.8229C118.24 34.5335 116.31 35.937 112.801 35.937C109.292 35.937 107.45 34.5335 106.003 32.8229C103.503 29.8403 103.678 24.1819 103.678 19.9713C103.678 15.7607 103.503 10.1019 106.003 7.11967C107.45 5.4092 109.292 4.00537 112.801 4.00537C116.31 4.00537 118.24 5.4092 119.688 7.11967C122.187 10.1023 122.012 15.7604 122.012 19.9713C122.012 24.1821 122.188 29.8403 119.688 32.8229ZM114.951 10.8479C114.6 10.1463 113.942 9.61967 112.802 9.61967C111.661 9.61967 111.091 10.1463 110.74 10.8479C109.994 12.2953 109.907 16.1991 109.907 19.9713C109.907 23.7435 109.994 27.6469 110.74 29.0947C111.091 29.7962 111.661 30.3225 112.802 30.3225C113.942 30.3225 114.6 29.7962 114.951 29.0947C115.697 27.6469 115.784 23.7436 115.784 19.9713C115.784 16.199 115.696 12.2953 114.951 10.8479Z" fill="white"/>
<path d="M48.105 4.35638H41.9646L33.9375 35.5865H40.4291L41.438 30.7177H48.6313L49.6401 35.5865H56.1318L48.105 4.35638ZM41.6985 27.5994L40.5885 28.0242V17.7186C40.5244 15.9644 41.502 14.9549 42.772 14.7904C41.9908 15.5396 41.6985 16.1236 41.6985 16.9374V27.5994ZM43.5257 27.7821L42.4156 28.216V17.609C42.3471 15.8046 43.3247 14.7681 44.5992 14.5987C43.818 15.366 43.5257 15.969 43.5257 16.805V27.7821ZM45.2479 16.4532V27.7683L44.1424 28.2155V17.2847C44.0736 15.4209 45.056 14.3519 46.326 14.1785C45.4581 14.7681 45.2479 15.5898 45.2479 16.4532ZM49.4459 20.0254C49.4459 20.8066 48.5963 22.04 46.6091 22.008C48.2354 21.2954 48.3678 20.3818 48.3999 19.1485V15.1422C48.3999 13.7216 47.3583 13.9773 47.1299 13.9454C48.2994 13.4292 49.4094 14.32 49.4459 15.3299V20.0254Z" fill="white"/>
</svg>
